<svg width="32" height="32" viewBox="0 0 32 32" fill="none" xmlns="http://www.w3.org/2000/svg">
<path d="M26.6667 14.6667C26.6667 11.8377 25.5429 9.12458 23.5425 7.12419C21.5421 5.12381 18.829 4 16 4C13.171 4 10.4579 5.12381 8.45754 7.12419C6.45715 9.12458 5.33334 11.8377 5.33334 14.6667" stroke="black" stroke-width="1.5" stroke-linecap="round" stroke-linejoin="round"/>
<path d="M26.6667 24V24.6667C26.6667 25.3739 26.3857 26.0522 25.8856 26.5523C25.3855 27.0524 24.7072 27.3333 24 27.3333H19.3333M2.66667 20.584V18.0827C2.66676 17.488 2.86561 16.9105 3.23161 16.4418C3.59761 15.9731 4.10977 15.6402 4.68667 15.496L7.00667 14.9147C7.12456 14.8853 7.24759 14.8832 7.36642 14.9085C7.48525 14.9337 7.59677 14.9857 7.6925 15.0605C7.78824 15.1353 7.86569 15.2309 7.91897 15.3401C7.97225 15.4493 7.99996 15.5692 8.00001 15.6907V22.9747C8.00022 23.0964 7.97264 23.2166 7.91937 23.3261C7.8661 23.4356 7.78855 23.5314 7.69262 23.6064C7.59669 23.6814 7.48492 23.7334 7.36582 23.7587C7.24672 23.7839 7.12343 23.7816 7.00534 23.752L4.68534 23.172C4.10868 23.0275 3.59683 22.6945 3.23109 22.2259C2.86534 21.7572 2.66669 21.1798 2.66667 20.5853V20.584ZM29.3333 20.584V18.0827C29.3332 17.488 29.1344 16.9105 28.7684 16.4418C28.4024 15.9731 27.8902 15.6402 27.3133 15.496L24.9933 14.9147C24.8755 14.8853 24.7524 14.8832 24.6336 14.9085C24.5148 14.9337 24.4032 14.9857 24.3075 15.0605C24.2118 15.1353 24.1343 15.2309 24.081 15.3401C24.0278 15.4493 24 15.5692 24 15.6907V22.9747C23.9998 23.0963 24.0274 23.2163 24.0806 23.3257C24.1338 23.435 24.2112 23.5308 24.307 23.6057C24.4027 23.6807 24.5143 23.7328 24.6333 23.7582C24.7522 23.7835 24.8753 23.7814 24.9933 23.752L27.3133 23.172C27.8902 23.0278 28.4024 22.6949 28.7684 22.2262C29.1344 21.7576 29.3332 21.18 29.3333 20.5853V20.584Z" stroke="black" stroke-width="1.5"/>
<path d="M18 29.3333H14C13.4696 29.3333 12.9609 29.1226 12.5858 28.7476C12.2107 28.3725 12 27.8638 12 27.3333C12 26.8029 12.2107 26.2942 12.5858 25.9191C12.9609 25.5441 13.4696 25.3333 14 25.3333H18C18.5304 25.3333 19.0391 25.5441 19.4142 25.9191C19.7893 26.2942 20 26.8029 20 27.3333C20 27.8638 19.7893 28.3725 19.4142 28.7476C19.0391 29.1226 18.5304 29.3333 18 29.3333Z" stroke="black" stroke-width="1.5"/>
</svg>
