<svg width="57" height="57" viewBox="0 0 57 57" fill="none" xmlns="http://www.w3.org/2000/svg">
<path d="M27.6666 28.6667C30.6121 28.6667 32.9999 26.2789 32.9999 23.3333C32.9999 20.3878 30.6121 18 27.6666 18C24.7211 18 22.3333 20.3878 22.3333 23.3333C22.3333 26.2789 24.7211 28.6667 27.6666 28.6667Z" fill="black"/>
<path fill-rule="evenodd" clip-rule="evenodd" d="M27.6667 30C24.1067 30 17 31.7867 17 35.3333V39.3333H38.3333V35.3333C38.3333 31.7867 31.2267 30 27.6667 30Z" fill="black"/>
<path d="M57 28.5C57 44.2401 44.2401 57 28.5 57C12.7599 57 0 44.2401 0 28.5C0 12.7599 12.7599 0 28.5 0C44.2401 0 57 12.7599 57 28.5Z" fill="#C4C4C4" fill-opacity="0.35"/>
</svg>
