<svg width="24" height="24" viewBox="0 0 24 24" fill="none" xmlns="http://www.w3.org/2000/svg">
<path d="M16.4267 0H7.57333C7.22667 0 6.88 0.146667 6.64 0.386667L0.386667 6.64C0.146667 6.88 0 7.22667 0 7.57333V16.4133C0 16.7733 0.146667 17.1067 0.386667 17.36L6.62667 23.6C6.88 23.8533 7.22667 24 7.57333 24H16.4133C16.7733 24 17.1067 23.8533 17.36 23.6133L23.6 17.3733C23.7242 17.2492 23.8223 17.1015 23.8887 16.939C23.9551 16.7764 23.9884 16.6022 23.9867 16.4267V7.57333C23.9867 7.21333 23.84 6.88 23.6 6.62667L17.36 0.386667C17.12 0.146667 16.7733 0 16.4267 0ZM12 19.0667C11.04 19.0667 10.2667 18.2933 10.2667 17.3333C10.2667 16.3733 11.04 15.6 12 15.6C12.96 15.6 13.7333 16.3733 13.7333 17.3333C13.7333 18.2933 12.96 19.0667 12 19.0667ZM12 13.3333C11.2667 13.3333 10.6667 12.7333 10.6667 12V6.66667C10.6667 5.93333 11.2667 5.33333 12 5.33333C12.7333 5.33333 13.3333 5.93333 13.3333 6.66667V12C13.3333 12.7333 12.7333 13.3333 12 13.3333Z" fill="black"/>
</svg>
